<svg width="32" height="28" viewBox="0 0 32 28" fill="none" xmlns="http://www.w3.org/2000/svg">
<path d="M23.1108 0H18.0314C17.6106 0 17.2695 0.341116 17.2695 0.761905V2.28571C17.2695 2.7065 17.6106 3.04762 18.0314 3.04762H23.1108C23.5316 3.04762 23.8727 2.7065 23.8727 2.28571V0.761905C23.8727 0.341116 23.5316 0 23.1108 0Z" fill="#F8B917"/>
<path d="M8.38131 11.1746H3.30194C3.09987 11.1746 2.90608 11.2548 2.7632 11.3977C2.62031 11.5406 2.54004 11.7344 2.54004 11.9365C2.54004 12.1385 2.62031 12.3323 2.7632 12.4752C2.90608 12.6181 3.09987 12.6984 3.30194 12.6984H8.38131C8.58338 12.6984 8.77717 12.6181 8.92006 12.4752C9.06294 12.3323 9.14321 12.1385 9.14321 11.9365C9.14321 11.7344 9.06294 11.5406 8.92006 11.3977C8.77717 11.2548 8.58338 11.1746 8.38131 11.1746Z" fill="#F8B917"/>
<path d="M8.12661 18.0318C8.12661 17.8297 8.04634 17.6359 7.90345 17.4931C7.76057 17.3502 7.56678 17.2699 7.36471 17.2699H2.28534C2.08327 17.2699 1.88948 17.3502 1.74659 17.4931C1.60371 17.6359 1.52344 17.8297 1.52344 18.0318C1.52344 18.2339 1.60371 18.4277 1.74659 18.5706C1.88948 18.7134 2.08327 18.7937 2.28534 18.7937H7.36471C7.56678 18.7937 7.76057 18.7134 7.90345 18.5706C8.04634 18.4277 8.12661 18.2339 8.12661 18.0318Z" fill="#F8B917"/>
<path d="M7.87312 20.3175H4.31757C4.1155 20.3175 3.92171 20.3978 3.77882 20.5407C3.63594 20.6835 3.55566 20.8773 3.55566 21.0794C3.55566 21.2815 3.63594 21.4753 3.77882 21.6182C3.92171 21.761 4.1155 21.8413 4.31757 21.8413H7.87312C8.07519 21.8413 8.26899 21.761 8.41187 21.6182C8.55476 21.4753 8.63503 21.2815 8.63503 21.0794C8.63503 20.8773 8.55476 20.6835 8.41187 20.5407C8.26899 20.3978 8.07519 20.3175 7.87312 20.3175Z" fill="#F8B917"/>
<path d="M8.12698 14.9841C8.12698 14.782 8.04671 14.5882 7.90383 14.4453C7.76094 14.3024 7.56715 14.2222 7.36508 14.2222H0.761905C0.559835 14.2222 0.366042 14.3024 0.223157 14.4453C0.0802719 14.5882 0 14.782 0 14.9841C0 15.1861 0.0802719 15.3799 0.223157 15.5228C0.366042 15.6657 0.559835 15.746 0.761905 15.746H7.36508C7.56715 15.746 7.76094 15.6657 7.90383 15.5228C8.04671 15.3799 8.12698 15.1861 8.12698 14.9841Z" fill="#F8B917"/>
<path d="M20.5714 16.508V7.87305C15.8101 7.87305 11.9365 11.7466 11.9365 16.508C11.9365 21.2693 15.8101 25.1429 20.5714 25.1429C25.3328 25.1429 29.2064 21.2693 29.2064 16.508H20.5714Z" fill="#F8B917"/>
<path d="M28.9278 8.72087L29.7448 7.90386C29.8165 7.83332 29.8735 7.74928 29.9126 7.6566C29.9516 7.56392 29.9719 7.46442 29.9724 7.36384C29.9728 7.26326 29.9533 7.1636 29.915 7.0706C29.8767 6.9776 29.8203 6.89311 29.7492 6.82199C29.6781 6.75087 29.5936 6.69454 29.5006 6.65624C29.4076 6.61794 29.3079 6.59843 29.2074 6.59884C29.1068 6.59925 29.0073 6.61957 28.9146 6.65862C28.8219 6.69768 28.7379 6.7547 28.6673 6.8264L27.8171 7.67662C26.1796 6.32768 24.1976 5.46329 22.095 5.181V3.80957H19.0473V5.181C16.9447 5.46318 14.9628 6.32744 13.3252 7.67624L12.475 6.82601C12.4044 6.75432 12.3204 6.6973 12.2277 6.65824C12.135 6.61919 12.0355 6.59887 11.9349 6.59846C11.8344 6.59805 11.7347 6.61756 11.6417 6.65586C11.5487 6.69416 11.4642 6.75049 11.3931 6.82161C11.322 6.89273 11.2656 6.97722 11.2273 7.07022C11.189 7.16322 11.1695 7.26288 11.1699 7.36346C11.1704 7.46404 11.1907 7.56354 11.2297 7.65622C11.2688 7.7489 11.3258 7.83294 11.3975 7.90348L12.2145 8.72049C10.2387 10.832 9.14047 13.6162 9.14258 16.508C9.14258 22.8097 14.2694 27.9366 20.5712 27.9366C26.8729 27.9366 31.9997 22.8097 31.9997 16.508C32.0017 13.6164 30.9035 10.8323 28.9278 8.72087ZM20.5712 25.9048C18.7126 25.9048 16.8959 25.3537 15.3506 24.3212C13.8053 23.2886 12.6008 21.821 11.8896 20.104C11.1784 18.3869 10.9923 16.4976 11.3549 14.6748C11.7175 12.8519 12.6124 11.1776 13.9266 9.86342C15.2408 8.54925 16.9151 7.65429 18.7379 7.29171C20.5607 6.92914 22.4501 7.11522 24.1672 7.82645C25.8842 8.53767 27.3518 9.74209 28.3843 11.2874C29.4169 12.8327 29.968 14.6495 29.968 16.508C29.968 17.742 29.7249 18.9639 29.2527 20.104C28.7804 21.2441 28.0883 22.28 27.2157 23.1525C26.3431 24.0251 25.3072 24.7173 24.1672 25.1895C23.0271 25.6618 21.8052 25.9048 20.5712 25.9048Z" fill="#F8B917"/>
</svg>
