<svg width="22" height="22" viewBox="0 0 22 22" fill="none" xmlns="http://www.w3.org/2000/svg">
<path d="M0.60043 9.33241C0.211753 8.28257 -0.0697024 7.21039 0.015181 6.0712C0.0687916 5.36982 0.332377 4.77119 0.846146 4.27978C1.40459 3.75262 1.93176 3.19866 2.48127 2.66257C3.19608 1.95672 4.09406 1.96119 4.80886 2.66257C5.25115 3.09591 5.68897 3.53819 6.12679 3.98046C6.55121 4.40486 6.98009 4.82927 7.40451 5.25814C8.15059 6.01313 8.15506 6.89321 7.40898 7.64373C6.87287 8.17982 6.34123 8.72038 5.79619 9.24753C5.65323 9.38602 5.63983 9.50217 5.71578 9.6764C6.07318 10.5341 6.59142 11.2981 7.1722 12.0129C8.3427 13.4514 9.66509 14.729 11.2421 15.7163C11.5817 15.9263 11.9525 16.0827 12.3054 16.2748C12.4886 16.373 12.6092 16.3418 12.7566 16.1899C13.2883 15.6404 13.8333 15.0998 14.3784 14.5593C15.0932 13.8534 15.9867 13.849 16.7015 14.5593C17.5771 15.426 18.4483 16.2971 19.315 17.1727C20.0432 17.9054 20.0387 18.8033 19.3061 19.5404C18.8102 20.0408 18.2875 20.5143 17.8228 21.037C17.1438 21.7965 16.286 22.0466 15.3121 21.993C13.8914 21.9171 12.5824 21.4435 11.3181 20.8315C8.51246 19.469 6.11786 17.5792 4.11193 15.1936C2.6287 13.4246 1.40459 11.5036 0.60043 9.33241ZM22 10.9317C22 4.90521 17.0946 0 11.0679 0V2.08181C15.9465 2.08181 19.9181 6.05334 19.9181 10.9317H22ZM16.0135 10.9317H18.0954C18.0954 7.0585 14.9413 3.90451 11.0679 3.90451V5.98632C12.3903 5.98632 13.6323 6.50008 14.566 7.43376C15.4997 8.36745 16.0135 9.60939 16.0135 10.9317Z" fill="#F8B917"/>
</svg>
