<svg width="20" height="20" viewBox="0 0 20 20" fill="none" xmlns="http://www.w3.org/2000/svg">
<g filter="url(#filter0_d)">
<path d="M0.491261 7.63561C0.173253 6.77665 -0.0570293 5.89941 0.0124208 4.96735C0.0562841 4.39349 0.271945 3.9037 0.692301 3.50163C1.14921 3.07033 1.58053 2.61709 2.03013 2.17847C2.61497 1.60096 3.34968 1.60461 3.93452 2.17847C4.2964 2.53302 4.65461 2.89488 5.01283 3.25674C5.36008 3.60398 5.71099 3.95122 6.05824 4.30211C6.66867 4.91983 6.67232 5.6399 6.06189 6.25396C5.62326 6.69258 5.18828 7.13485 4.74234 7.56616C4.62537 7.67947 4.6144 7.77451 4.67654 7.91706C4.96897 8.61884 5.39298 9.24388 5.86816 9.8287C6.82584 11.0057 7.9078 12.051 9.19811 12.8588C9.47591 13.0306 9.7793 13.1585 10.0681 13.3157C10.2179 13.3961 10.3166 13.3705 10.4372 13.2463C10.8722 12.7967 11.3182 12.3544 11.7641 11.9121C12.349 11.3346 13.08 11.331 13.6649 11.9121C14.3813 12.6212 15.0941 13.334 15.8032 14.0504C16.399 14.6498 16.3953 15.3845 15.7959 15.9876C15.3901 16.397 14.9625 16.7845 14.5823 17.2121C14.0267 17.8335 13.3249 18.0382 12.5281 17.9943C11.3657 17.9322 10.2947 17.5447 9.26025 17.044C6.96474 15.9291 5.00552 14.383 3.3643 12.4312C2.15075 10.9837 1.14921 9.41201 0.491261 7.63561ZM18 8.94415C18 4.01336 13.9865 0 9.05556 0V1.7033C13.0471 1.7033 16.2966 4.95273 16.2966 8.94415H18ZM13.1019 8.94415H14.8053C14.8053 5.77514 12.2247 3.1946 9.05556 3.1946V4.8979C10.1375 4.8979 11.1537 5.31824 11.9176 6.08217C12.6816 6.8461 13.1019 7.86223 13.1019 8.94415Z" fill="white"/>
</g>
<defs>
<filter id="filter0_d" x="0" y="0" width="20" height="20" filterUnits="userSpaceOnUse" color-interpolation-filters="sRGB">
<feFlood flood-opacity="0" result="BackgroundImageFix"/>
<feColorMatrix in="SourceAlpha" type="matrix" values="0 0 0 0 0 0 0 0 0 0 0 0 0 0 0 0 0 0 127 0" result="hardAlpha"/>
<feOffset dx="1" dy="1"/>
<feGaussianBlur stdDeviation="0.5"/>
<feColorMatrix type="matrix" values="0 0 0 0 0.148958 0 0 0 0 0.65 0 0 0 0 0.339009 0 0 0 1 0"/>
<feBlend mode="normal" in2="BackgroundImageFix" result="effect1_dropShadow"/>
<feBlend mode="normal" in="SourceGraphic" in2="effect1_dropShadow" result="shape"/>
</filter>
</defs>
</svg>
